<svg xmlns="http://www.w3.org/2000/svg" version="1.0" width="811.000000pt" height="586.000000pt" viewBox="0 0 811.000000 586.000000" preserveAspectRatio="xMidYMid meet">

    <g transform="translate(0.000000,586.000000) scale(0.100000,-0.100000)" fill="#000000" stroke="none">
    <path d="M2375 5830 c-22 -4 -74 -14 -115 -20 -41 -7 -101 -21 -132 -31 -32 -11 -63 -19 -69 -19 -6 0 -53 -16 -103 -36 -383 -153 -691 -409 -892 -740 -81 -134 -166 -341 -194 -474 -6 -30 -16 -68 -21 -85 -5 -16 -14 -104 -21 -195 -9 -128 -9 -201 1 -330 6 -91 16 -178 21 -195 5 -16 17 -61 25 -100 40 -177 139 -453 214 -595 56 -106 104 -195 119 -220 59 -100 104 -170 181 -279 47 -67 93 -133 101 -145 27 -40 198 -252 271 -336 46 -53 56 -60 88 -60 34 0 153 29 196 49 11 4 44 19 73 31 28 13 52 27 52 31 0 4 -35 45 -79 90 -69 74 -100 109 -185 209 -176 209 -330 431 -453 651 -50 90 -82 158 -160 336 -15 35 -66 196 -89 283 -44 162 -67 463 -45 591 6 30 15 87 21 127 31 195 138 428 274 597 64 81 106 123 191 194 170 141 339 231 565 298 288 86 640 65 918 -54 190 -81 332 -175 468 -308 171 -167 214 -236 417 -665 l35 -75 52 110 c108 227 160 331 187 371 15 23 41 61 57 85 50 75 265 281 356 341 337 220 724 297 1105 217 28 -6 59 -14 70 -18 11 -5 38 -13 60 -19 300 -78 663 -363 837 -656 16 -26 34 -48 40 -50 7 -2 36 -12 63 -21 28 -9 64 -20 80 -24 17 -4 46 -15 65 -23 138 -59 184 -77 188 -73 5 5 -32 96 -80 198 -21 43 -38 79 -38 81 0 2 -15 28 -33 57 -99 162 -154 234 -287 373 -248 260 -598 449 -935 505 -38 7 -89 16 -113 21 -54 13 -370 13 -425 1 -23 -5 -76 -15 -117 -21 -199 -31 -454 -135 -652 -266 -160 -107 -281 -216 -400 -364 -33 -41 -66 -78 -73 -83 -9 -4 -24 7 -44 35 -101 138 -299 321 -456 424 -190 125 -447 222 -692 264 -128 21 -403 27 -488 10z"/>
    <path fill="#bd0c22" d="M1500 4635 c-124 -18 -138 -23 -154 -59 -30 -69 -76 -272 -76 -338 0 -40 0 -40 33 -35 17 3 57 12 87 20 153 41 328 58 448 45 47 -5 94 -14 103 -19 10 -5 27 -9 38 -9 24 0 138 -37 241 -78 108 -43 304 -145 458 -237 73 -44 141 -85 150 -90 9 -6 66 -44 126 -85 59 -41 129 -88 155 -105 123 -78 468 -350 650 -511 19 -17 11 -27 -134 -164 -647 -610 -1293 -1039 -1710 -1134 -77 -18 -318 -22 -357 -7 -13 5 -59 14 -102 21 -43 6 -88 15 -100 20 -12 4 -43 15 -71 23 -243 74 -508 260 -663 467 -63 83 -159 265 -185 350 -39 124 -59 314 -46 434 27 257 105 439 278 644 l44 53 1 244 c1 135 -1 245 -4 245 -10 -1 -117 -85 -187 -148 -39 -35 -100 -98 -136 -140 -64 -74 -147 -187 -147 -198 0 -3 -9 -18 -20 -34 -33 -47 -108 -205 -134 -282 -62 -191 -71 -249 -71 -478 0 -220 6 -267 62 -455 39 -131 135 -320 224 -442 75 -102 190 -222 293 -306 56 -45 110 -88 121 -94 255 -159 414 -225 675 -280 111 -24 147 -27 330 -27 217 -1 268 7 445 66 469 158 1099 591 1735 1194 98 93 140 129 150 129 4 0 66 -54 136 -121 230 -215 393 -358 564 -494 63 -50 124 -99 135 -108 75 -62 358 -255 489 -333 l40 -23 133 138 c106 110 131 141 122 152 -6 7 -41 30 -77 50 -78 43 -310 197 -397 262 -68 52 -287 224 -295 232 -3 3 -50 43 -105 90 -55 46 -120 102 -145 125 -206 186 -320 296 -320 310 0 16 167 157 436 369 48 38 137 103 198 144 61 41 152 103 201 137 91 62 295 187 395 243 72 39 257 132 264 132 3 0 29 11 58 24 102 45 255 88 383 106 74 10 285 -3 331 -20 14 -6 38 -10 53 -10 40 0 229 -63 329 -110 111 -52 258 -151 348 -234 40 -36 107 -112 149 -168 121 -159 168 -263 224 -501 14 -58 15 -291 1 -349 -43 -188 -62 -244 -122 -356 -121 -228 -314 -415 -550 -535 -156 -79 -255 -115 -378 -137 -36 -6 -84 -15 -108 -21 -23 -5 -86 -9 -140 -9 l-97 0 -87 -98 c-48 -53 -112 -123 -143 -155 -30 -31 -55 -61 -55 -66 0 -43 394 -68 590 -37 439 70 757 228 1041 518 178 181 296 378 373 623 56 180 61 216 61 445 0 201 -2 222 -28 325 -35 138 -49 177 -105 295 -229 479 -664 818 -1207 939 -358 80 -658 49 -1034 -106 -169 -69 -527 -260 -618 -329 -17 -13 -34 -24 -36 -24 -18 0 -346 -233 -541 -385 -71 -55 -149 -115 -175 -134 -49 -37 -197 -160 -245 -204 -16 -15 -38 -27 -48 -27 -11 0 -45 24 -76 53 -63 58 -103 90 -427 342 -115 89 -295 218 -425 304 -464 307 -841 479 -1170 536 -101 17 -328 17 -450 0z"/>
    <path d="M6942 3928 c-6 -35 -14 -91 -17 -125 -12 -121 -71 -319 -156 -518 -108 -255 -302 -568 -520 -839 -144 -180 -183 -222 -448 -486 -336 -335 -617 -577 -1311 -1132 -47 -37 -89 -71 -95 -76 -224 -179 -334 -262 -347 -262 -14 0 -299 222 -602 469 -38 31 -110 89 -160 128 -124 99 -215 174 -401 333 -87 74 -171 146 -187 159 l-29 23 -47 -24 c-180 -94 -229 -121 -240 -132 -11 -10 0 -25 57 -79 39 -36 99 -90 134 -119 35 -29 158 -132 273 -228 216 -181 431 -356 488 -400 19 -14 71 -55 117 -92 104 -84 417 -330 521 -409 l77 -59 133 103 c571 440 1146 909 1502 1226 162 144 615 596 702 701 383 458 600 814 753 1233 71 193 132 467 110 493 -7 8 -46 37 -88 64 -42 28 -80 53 -86 58 -15 11 -104 52 -113 52 -5 0 -13 -28 -20 -62z"/>
    </g>
    </svg>